<svg fill="#000000" xmlns="http://www.w3.org/2000/svg"  viewBox="0 0 30 30" width="30px" height="30px"><path d="M 15 3 C 8.3845336 3 3 8.3845336 3 15 C 3 21.615466 8.3845336 27 15 27 C 18.657583 27 21.939247 25.352828 24.138672 22.767578 A 1.0001 1.0001 0 0 0 23.111328 21.154297 C 19.109283 22.258456 16.408559 21.451276 14.626953 20.041016 C 12.845347 18.630755 12 16.499964 12 15 C 12 13.331516 13.331516 12 15 12 C 16.668484 12 18 13.331516 18 15 C 18 15.665785 17.778009 16.267471 17.402344 16.773438 A 1.0001 1.0001 0 0 0 17.771484 18.269531 C 17.771484 18.269531 19.166834 18.960937 20.947266 18.960938 C 22.572174 18.960938 24.054427 18.206595 25.148438 17.146484 C 26.242448 16.086374 26.998047 14.691635 26.998047 13.201172 C 26.998047 10.782996 25.595636 8.29625 23.441406 6.3515625 C 21.287176 4.406875 18.315601 3 15 3 z M 12.228516 7.5898438 C 14.805075 7.4921371 17.303877 8.6762962 18.314453 11.289062 C 17.428983 10.497006 16.273953 10 15 10 C 13.155804 10 11.554175 11.02312 10.6875 12.519531 C 10.684941 12.516433 10.684242 12.508753 10.681641 12.505859 C 8.7945232 15.227015 7.927241 21.047928 11.613281 24.402344 C 7.7548838 23.017156 5 19.343105 5 15 C 5 14.060256 5.1380468 13.154442 5.3789062 12.292969 C 6.5039518 9.3354152 9.4083155 7.6967895 12.228516 7.5898438 z"/></svg>