<?xml version="1.0"?><svg fill="#000000" xmlns="http://www.w3.org/2000/svg"  viewBox="0 0 30 30" width="30px" height="30px">    <path d="M 15 3 C 8.373 3 3 8.373 3 15 C 3 21.627 8.373 27 15 27 C 21.627 27 27 21.627 27 15 C 27 8.373 21.627 3 15 3 z M 14.400391 5.0292969 L 14.400391 6 L 15.599609 6 L 15.599609 5.0292969 C 16.984075 5.1115384 18.2905 5.4734628 19.466797 6.0625 L 18.980469 6.90625 L 20.019531 7.5058594 L 20.509766 6.65625 C 21.634634 7.400522 22.599478 8.3653664 23.34375 9.4902344 L 22.494141 9.9804688 L 23.09375 11.019531 L 23.9375 10.533203 C 24.526537 11.7095 24.888462 13.015925 24.970703 14.400391 L 24 14.400391 L 24 15.599609 L 24.970703 15.599609 C 24.888462 16.984075 24.526537 18.2905 23.9375 19.466797 L 23.09375 18.980469 L 22.494141 20.019531 L 23.34375 20.509766 C 22.599478 21.634634 21.634634 22.599478 20.509766 23.34375 L 20.019531 22.494141 L 18.980469 23.09375 L 19.466797 23.9375 C 18.2905 24.526537 16.984075 24.888462 15.599609 24.970703 L 15.599609 24 L 14.400391 24 L 14.400391 24.970703 C 13.015925 24.888462 11.7095 24.526537 10.533203 23.9375 L 11.019531 23.09375 L 9.9804688 22.494141 L 9.4902344 23.34375 C 8.3653664 22.599478 7.400522 21.634634 6.65625 20.509766 L 7.5058594 20.019531 L 6.90625 18.980469 L 6.0625 19.466797 C 5.4734628 18.2905 5.1115384 16.984075 5.0292969 15.599609 L 6 15.599609 L 6 14.400391 L 5.0292969 14.400391 C 5.1115384 13.015925 5.4734628 11.7095 6.0625 10.533203 L 6.90625 11.019531 L 7.5058594 9.9804688 L 6.65625 9.4902344 C 7.400522 8.3653664 8.3653664 7.400522 9.4902344 6.65625 L 9.9804688 7.5058594 L 11.019531 6.90625 L 10.533203 6.0625 C 11.7095 5.4734628 13.015925 5.1115384 14.400391 5.0292969 z M 21 9 L 13.5 13.5 L 9 21 L 16.5 16.5 L 21 9 z"/></svg>